<svg width="148" height="69" viewBox="0 0 148 69" fill="none" xmlns="http://www.w3.org/2000/svg">
<rect width="148" height="69" fill="#1E1E1E"/>
<path d="M143 17C143.33 18.99 144.66 22.98 145.995 26.985C146.33 27.99 146.66 28.98 145.84 30.15C139.68 34.66 135.68 36.66 133.185 37.99C132.01 38.66 131.02 39.32 128 42" stroke="white" stroke-width="2" stroke-linecap="round"/>
<path d="M126 22C126.33 23.99 127.66 28.64 127.67 32.985C127.696 44.3039 97.34 35.01 96.505 33.015C96.1111 32.074 96.66 31.02 96.995 31.005C98.174 30.9522 98.33 33.99 98.5 35.985C98.5864 36.999 97.68 37.98 95.195 38.49C88.5395 39.8559 83.01 38.01 81.18 37.005C79.6119 36.1438 78.01 39.99 76.015 41.49C75.1142 42.1673 74.02 42 73.18 41.505C72.34 41.01 71.68 40.02 70.68 39.84C65.4432 38.8974 61.68 43 59.515 42.505C58.5603 42.2867 58.34 41.02 58.5 41.005C61.986 40.6782 61 47.98 61.83 51.985C62.6434 55.9098 61 59.98 59.675 63.82C58.9464 65.9315 55.68 66.33 48.07 66.83C30.5969 67.978 14.05 66.01 6.22 64.015C3.26412 63.2619 2.68 62.02 2.175 60.355C-0.268124 52.2999 1.66 43.38 3.99 32.385C4.66 28.39 5.32 22.78 6.32 17.58C7.32 12.38 8.64 7.76 10 3" stroke="white" stroke-width="2" stroke-linecap="round"/>
<path d="M93 1C94.33 2.32 95 5.99 95.495 7.985C95.7648 9.07232 96.98 9.98 97.985 10.16C98.99 10.34 99.98 9.68 100.655 9.835C101.33 9.99 101.66 10.98 101.83 12.15C102 13.32 102 14.64 102 16" stroke="white" stroke-width="2" stroke-linecap="round"/>
<path d="M91 62H93" stroke="white" stroke-width="2" stroke-linecap="round"/>
<path d="M100 58L102 59" stroke="white" stroke-width="2" stroke-linecap="round"/>
</svg>
